<svg width="10" height="10" viewBox="0 0 10 10" fill="none" xmlns="http://www.w3.org/2000/svg">
<path fill-rule="evenodd" clip-rule="evenodd" d="M0.528636 0.528595C0.788986 0.268246 1.2111 0.268246 1.47145 0.528595L9.47145 8.5286C9.7318 8.78895 9.7318 9.21105 9.47145 9.4714C9.2111 9.73175 8.78899 9.73175 8.52864 9.4714L0.528636 1.4714C0.268287 1.21105 0.268287 0.788945 0.528636 0.528595Z" fill="#717171" />
<path fill-rule="evenodd" clip-rule="evenodd" d="M9.47145 0.528595C9.7318 0.788945 9.7318 1.21105 9.47145 1.4714L1.47145 9.4714C1.2111 9.73175 0.788986 9.73175 0.528636 9.4714C0.268287 9.21105 0.268287 8.78895 0.528636 8.5286L8.52864 0.528595C8.78899 0.268246 9.2111 0.268246 9.47145 0.528595Z" fill="#717171">
</svg>
